<svg width="183" height="78" viewBox="0 0 183 78" fill="none" xmlns="http://www.w3.org/2000/svg">
<path d="M15.456 11.168C14.976 10.272 14.432 9.68 13.824 9.392C13.248 9.072 12.336 8.832 11.088 8.672L9.552 8.48V14.384V16.688C9.552 18.16 9.584 19.136 9.648 19.616C9.744 20.064 9.936 20.288 10.224 20.288C10.384 20.288 10.928 20.112 11.856 19.76C13.68 19.056 15.024 17.856 15.888 16.16C16.24 15.392 16.416 14.736 16.416 14.192C16.416 13.36 16.096 12.352 15.456 11.168ZM7.44 3.152C8.016 2.96 8.896 2.864 10.08 2.864C13.088 2.864 15.328 3.232 16.8 3.968C18.56 4.864 20 6.32 21.12 8.336C22.272 10.352 22.848 12.4 22.848 14.48C22.848 15.536 22.688 16.496 22.368 17.36C20.832 21.744 17.504 24.768 12.384 26.432L10.176 27.152L10.272 28.064C10.336 28.832 10.432 29.392 10.56 29.744C10.688 30.16 10.752 30.64 10.752 31.184C10.752 32.208 10.48 33.072 9.936 33.776C9.392 34.48 8.704 34.832 7.872 34.832C7.584 34.832 7.376 34.816 7.248 34.784C6.256 34.56 5.488 33.984 4.944 33.056C4.4 32.096 3.904 30.48 3.456 28.208C2.784 24.848 2.448 20.496 2.448 15.152C2.448 11.376 2.656 8.752 3.072 7.28C3.296 6.512 3.824 5.728 4.656 4.928C5.52 4.096 6.448 3.504 7.44 3.152ZM40.6223 18.464C40.4303 18.144 39.9023 17.968 39.0383 17.936H38.6063C37.9343 17.936 37.3903 18.128 36.9743 18.512C36.2703 19.088 35.6623 20.048 35.1503 21.392C34.6383 22.736 34.3823 24.048 34.3823 25.328C34.3823 26.64 34.5903 27.296 35.0063 27.296C35.1343 27.296 35.2783 27.248 35.4383 27.152C37.1023 26.384 38.6063 24.384 39.9503 21.152C40.4623 19.904 40.7183 19.104 40.7183 18.752C40.7183 18.688 40.6863 18.592 40.6223 18.464ZM35.6783 13.184C36.4783 12.896 37.4063 12.752 38.4623 12.752C39.4863 12.752 40.4143 12.896 41.2463 13.184C41.9503 13.44 42.6383 13.568 43.3103 13.568L43.8383 13.52H44.2703C45.5503 13.52 46.3823 14.144 46.7663 15.392C46.8943 15.776 47.0543 17.808 47.2463 21.488C47.4383 25.168 47.5343 27.936 47.5343 29.792V30.512C47.5023 31.376 47.1983 32.112 46.6223 32.72C46.0463 33.296 45.3583 33.584 44.5583 33.584C44.2063 33.584 43.9503 33.552 43.7903 33.488C43.2463 33.328 42.7343 33.024 42.2543 32.576C41.8063 32.096 41.5343 31.584 41.4383 31.04C41.4063 30.912 41.3583 30.656 41.2943 30.272C41.2303 29.888 41.1823 29.632 41.1503 29.504L41.0063 28.736L39.8543 29.84C39.0543 30.64 38.2223 31.296 37.3583 31.808C36.4623 32.352 35.4223 32.624 34.2383 32.624C33.2783 32.624 32.5743 32.544 32.1263 32.384C31.7103 32.192 31.1343 31.76 30.3983 31.088C28.7663 29.648 27.9503 27.632 27.9503 25.04C27.9503 22.032 29.0543 19.152 31.2623 16.4C32.5423 14.8 34.0143 13.728 35.6783 13.184ZM59.8579 5.312C60.1459 5.184 60.4179 5.12 60.6739 5.12C60.9299 5.12 61.3139 5.216 61.8259 5.408C62.4659 5.664 62.9139 6.112 63.1699 6.752C63.4259 7.392 63.5859 8.432 63.6499 9.872L63.8419 12.32L65.5219 12.512C66.6739 12.64 67.4739 12.912 67.9219 13.328C68.5299 13.936 68.8339 14.608 68.8339 15.344C68.8339 15.728 68.7219 16.144 68.4979 16.592C67.9219 17.648 66.7699 18.176 65.0419 18.176H63.6019L63.7939 21.776C63.8899 23.792 64.0019 25.2 64.1299 26C64.2899 26.768 64.5619 27.408 64.9459 27.92C65.2339 28.304 65.6339 28.496 66.1459 28.496C66.5619 28.496 66.9299 28.48 67.2499 28.448C67.4419 28.416 67.7299 28.4 68.1139 28.4C69.6179 28.4 70.6419 28.976 71.1859 30.128C71.4099 30.576 71.5219 31.024 71.5219 31.472C71.5219 33.04 70.2419 34.08 67.6819 34.592C66.8819 34.752 66.2099 34.832 65.6659 34.832C63.6499 34.832 61.8099 34 60.1459 32.336C58.6739 30.864 57.7139 29.104 57.2659 27.056C57.0739 26.32 56.9139 24.688 56.7859 22.16L56.6419 18.56L55.2019 18.272C53.4419 17.888 52.5619 17.056 52.5619 15.776C52.5619 14.464 53.5379 13.616 55.4899 13.232C56.1939 13.104 56.6259 12.976 56.7859 12.848C56.9459 12.72 57.0579 12.48 57.1219 12.128C57.1539 11.968 57.2019 11.664 57.2659 11.216C57.3299 10.768 57.3779 10.48 57.4099 10.352C57.8579 7.44 58.6739 5.76 59.8579 5.312ZM78.4751 7.28C78.9231 6.768 79.4671 6.512 80.1071 6.512C80.8111 6.512 81.3871 6.768 81.8351 7.28C82.2831 7.76 82.5071 8.336 82.5071 9.008C82.5071 9.968 82.0911 10.672 81.2591 11.12C80.7471 11.344 80.3791 11.456 80.1551 11.456C79.7071 11.456 79.2111 11.184 78.6671 10.64C78.0911 10.064 77.8031 9.472 77.8031 8.864C77.8031 8.352 78.0271 7.824 78.4751 7.28ZM78.4271 14.192C78.9071 13.904 79.3871 13.76 79.8671 13.76C80.8911 13.76 81.6431 14.272 82.1231 15.296C82.3791 15.808 82.5071 17.152 82.5071 19.328C82.5071 20.992 82.4911 22.448 82.4591 23.696C82.3951 27.664 82.2831 30.096 82.1231 30.992C81.9951 31.856 81.6271 32.464 81.0191 32.816C80.5391 33.104 80.0431 33.248 79.5311 33.248C78.4751 33.248 77.6751 32.736 77.1311 31.712C76.7791 31.104 76.6031 28.864 76.6031 24.992C76.6031 20.032 76.8431 16.848 77.3231 15.44C77.4831 14.992 77.8511 14.576 78.4271 14.192ZM88.9226 12.848C89.4346 12.432 89.9626 12.224 90.5066 12.224C91.1466 12.224 91.7386 12.496 92.2826 13.04C92.8266 13.584 93.0986 14.032 93.0986 14.384C93.0986 14.832 93.2266 15.056 93.4826 15.056C93.7386 15.056 94.0586 14.864 94.4426 14.48C95.6906 13.296 97.2266 12.704 99.0506 12.704C100.075 12.704 101.019 12.912 101.883 13.328C104.379 14.48 105.995 16.928 106.731 20.672C106.955 21.696 107.067 23.28 107.067 25.424C107.067 27.92 106.923 29.712 106.635 30.8C106.347 31.76 105.883 32.528 105.243 33.104C104.635 33.68 103.963 33.968 103.227 33.968C101.851 33.968 100.859 33.328 100.251 32.048C99.9626 31.472 99.8186 30.944 99.8186 30.464C99.8186 29.984 99.9626 28.496 100.251 26C100.347 25.168 100.395 24.368 100.395 23.6C100.395 22.128 100.235 20.896 99.9146 19.904C99.6266 18.88 99.2266 18.32 98.7146 18.224H98.5706C98.0586 18.224 97.4986 18.688 96.8906 19.616C96.2826 20.544 95.7226 21.76 95.2106 23.264C94.7946 24.544 94.5866 25.856 94.5866 27.2V28.256V28.736C94.5866 30.56 94.4106 31.776 94.0586 32.384C93.7066 32.96 93.0026 33.248 91.9466 33.248C91.0506 33.216 90.3466 32.8 89.8346 32C89.6106 31.648 89.2746 30.88 88.8266 29.696C88.4106 28.48 88.1066 27.44 87.9146 26.576C87.5626 24.976 87.3866 22.816 87.3866 20.096C87.3866 17.344 87.5626 15.408 87.9146 14.288C88.0746 13.776 88.4106 13.296 88.9226 12.848ZM114.157 3.44C114.669 3.024 115.277 2.816 115.981 2.816C116.525 2.816 116.973 2.944 117.325 3.2C117.869 3.584 118.221 4.176 118.381 4.976C118.541 5.744 118.621 7.28 118.621 9.584V13.904L119.437 13.472C120.461 12.864 121.549 12.56 122.701 12.56C125.037 12.56 126.957 13.68 128.461 15.92C129.197 17.104 129.757 18.304 130.141 19.52C130.461 20.448 130.653 21.232 130.717 21.872C130.781 22.48 130.813 23.792 130.813 25.808V27.68C130.813 29.376 130.637 30.56 130.285 31.232C129.581 32.576 128.525 33.248 127.117 33.248C125.901 33.248 124.989 32.72 124.381 31.664C124.029 31.056 123.821 29.2 123.757 26.096C123.725 22.96 123.501 20.992 123.085 20.192C122.669 19.36 122.237 18.944 121.789 18.944C121.629 18.944 121.437 18.992 121.213 19.088C120.605 19.376 120.109 20.144 119.725 21.392C119.373 22.608 119.197 24.032 119.197 25.664C119.197 26.56 119.229 27.232 119.293 27.68C119.389 28.448 119.437 29.088 119.437 29.6C119.437 30.816 119.101 31.76 118.429 32.432C117.917 32.944 117.293 33.2 116.557 33.2C116.173 33.2 115.693 33.088 115.117 32.864C114.093 32.384 113.341 31.232 112.861 29.408C112.413 27.552 112.125 24.592 111.997 20.528C111.933 18.48 111.901 17.024 111.901 16.16C111.901 8.928 112.653 4.688 114.157 3.44ZM148.435 18.464C148.243 18.144 147.715 17.968 146.851 17.936H146.419C145.747 17.936 145.203 18.128 144.787 18.512C144.083 19.088 143.475 20.048 142.963 21.392C142.451 22.736 142.195 24.048 142.195 25.328C142.195 26.64 142.403 27.296 142.819 27.296C142.947 27.296 143.091 27.248 143.251 27.152C144.915 26.384 146.419 24.384 147.763 21.152C148.275 19.904 148.531 19.104 148.531 18.752C148.531 18.688 148.499 18.592 148.435 18.464ZM143.491 13.184C144.291 12.896 145.219 12.752 146.275 12.752C147.299 12.752 148.227 12.896 149.059 13.184C149.763 13.44 150.451 13.568 151.123 13.568L151.651 13.52H152.083C153.363 13.52 154.195 14.144 154.579 15.392C154.707 15.776 154.867 17.808 155.059 21.488C155.251 25.168 155.347 27.936 155.347 29.792V30.512C155.315 31.376 155.011 32.112 154.435 32.72C153.859 33.296 153.171 33.584 152.371 33.584C152.019 33.584 151.763 33.552 151.603 33.488C151.059 33.328 150.547 33.024 150.067 32.576C149.619 32.096 149.347 31.584 149.251 31.04C149.219 30.912 149.171 30.656 149.107 30.272C149.043 29.888 148.995 29.632 148.963 29.504L148.819 28.736L147.667 29.84C146.867 30.64 146.035 31.296 145.171 31.808C144.275 32.352 143.235 32.624 142.051 32.624C141.091 32.624 140.387 32.544 139.939 32.384C139.523 32.192 138.947 31.76 138.211 31.088C136.579 29.648 135.763 27.632 135.763 25.04C135.763 22.032 136.867 19.152 139.075 16.4C140.355 14.8 141.827 13.728 143.491 13.184ZM167.91 11.504C168.614 11.344 169.19 11.264 169.638 11.264C171.014 11.264 172.246 11.776 173.334 12.8C174.23 13.696 174.678 14.608 174.678 15.536C174.678 16.304 174.342 16.96 173.67 17.504C173.35 17.728 173.078 17.84 172.854 17.84C172.566 17.84 172.214 17.776 171.798 17.648C171.382 17.52 170.95 17.456 170.502 17.456C169.734 17.456 169.174 17.744 168.822 18.32C168.63 18.576 168.534 18.816 168.534 19.04C168.534 19.584 169.206 20.272 170.55 21.104C173.558 22.992 175.158 25.36 175.35 28.208C175.35 28.336 175.35 28.512 175.35 28.736C175.382 28.96 175.398 29.12 175.398 29.216C175.398 29.856 175.206 30.576 174.822 31.376C174.246 32.528 173.35 33.536 172.134 34.4C170.95 35.232 169.622 35.76 168.15 35.984C167.574 36.08 166.95 36.128 166.278 36.128C165.926 36.128 165.686 36.112 165.558 36.08C163.734 35.728 162.278 34.928 161.19 33.68C160.614 32.976 160.326 32.256 160.326 31.52C160.39 29.856 161.27 29.024 162.966 29.024C163.734 29.024 164.518 29.152 165.318 29.408C165.894 29.568 166.438 29.648 166.95 29.648C167.59 29.648 168.134 29.552 168.582 29.36C169.03 29.168 169.254 28.912 169.254 28.592C169.254 28.048 168.278 27.168 166.326 25.952C163.35 24.224 161.862 21.904 161.862 18.992V18.512C161.958 16.848 162.566 15.36 163.686 14.048C164.838 12.736 166.246 11.888 167.91 11.504Z" fill="#FFAC30"/>
<path d="M67.28 46.84C67.504 47.4 67.648 48.04 67.712 48.76C67.792 49.464 67.792 50.184 67.712 50.92C67.648 51.656 67.504 52.376 67.28 53.08C67.056 53.784 66.752 54.4 66.368 54.928C66.256 55.088 66.144 55.24 66.032 55.384C65.92 55.528 65.8 55.664 65.672 55.792C64.632 56.944 63.392 57.8 61.952 58.36C61.888 58.392 61.744 58.432 61.52 58.48C61.296 58.544 61.048 58.608 60.776 58.672C60.52 58.752 60.264 58.816 60.008 58.864C59.768 58.928 59.6 58.96 59.504 58.96C58.944 59.008 58.424 59.048 57.944 59.08C57.48 59.112 56.96 59.128 56.384 59.128C55.824 59.128 55.28 59.144 54.752 59.176C54.224 59.224 53.696 59.248 53.168 59.248C52.784 59.248 52.376 59.248 51.944 59.248C51.528 59.248 51.128 59.168 50.744 59.008C50.568 58.944 50.408 58.832 50.264 58.672C50.136 58.528 50.04 58.368 49.976 58.192C49.912 58.016 49.904 57.84 49.952 57.664C49.984 57.472 50.08 57.312 50.24 57.184C50.368 57.072 50.472 56.992 50.552 56.944C50.648 56.896 50.808 56.856 51.032 56.824C51.208 56.792 51.408 56.76 51.632 56.728C51.872 56.68 52.112 56.648 52.352 56.632C52.608 56.616 52.848 56.608 53.072 56.608C53.296 56.608 53.496 56.624 53.672 56.656C53.944 55.856 54.224 54.976 54.512 54.016C54.816 53.04 55.12 52.04 55.424 51.016C55.728 49.992 56.032 48.96 56.336 47.92C56.656 46.88 56.976 45.88 57.296 44.92C56.832 45.016 56.336 45.136 55.808 45.28C55.28 45.408 54.752 45.616 54.224 45.904C54 46.016 53.768 46.112 53.528 46.192C53.304 46.272 53.048 46.328 52.76 46.36C52.52 46.392 52.28 46.392 52.04 46.36C51.8 46.328 51.64 46.176 51.56 45.904C51.512 45.744 51.528 45.552 51.608 45.328C51.688 45.04 51.8 44.824 51.944 44.68C52.104 44.52 52.288 44.352 52.496 44.176C52.944 43.92 53.4 43.68 53.864 43.456C54.344 43.216 54.864 43.008 55.424 42.832C55.632 42.752 55.848 42.688 56.072 42.64C56.312 42.576 56.552 42.52 56.792 42.472C57.016 42.424 57.24 42.376 57.464 42.328C57.688 42.264 57.912 42.216 58.136 42.184C58.856 42.12 59.552 42.088 60.224 42.088C60.912 42.072 61.576 42.128 62.216 42.256C62.856 42.384 63.464 42.608 64.04 42.928C64.632 43.248 65.184 43.696 65.696 44.272C66.016 44.64 66.312 45.032 66.584 45.448C66.856 45.864 67.088 46.328 67.28 46.84ZM63.632 54.496C64.064 54.064 64.408 53.584 64.664 53.056C64.92 52.528 65.096 51.976 65.192 51.4C65.304 50.808 65.344 50.208 65.312 49.6C65.296 48.992 65.224 48.392 65.096 47.8C65 47.512 64.856 47.232 64.664 46.96C64.488 46.672 64.28 46.4 64.04 46.144C63.816 45.888 63.568 45.656 63.296 45.448C63.04 45.24 62.768 45.072 62.48 44.944C62.048 44.72 61.616 44.568 61.184 44.488C60.752 44.392 60.296 44.352 59.816 44.368C59.768 44.512 59.72 44.656 59.672 44.8C59.624 44.928 59.584 45.064 59.552 45.208C59.216 46.104 58.912 47.032 58.64 47.992C58.384 48.952 58.12 49.92 57.848 50.896C57.576 51.872 57.296 52.84 57.008 53.8C56.72 54.744 56.384 55.664 56 56.56H56.048C56.608 56.56 57.12 56.568 57.584 56.584C58.064 56.584 58.56 56.568 59.072 56.536C59.936 56.504 60.776 56.312 61.592 55.96C62.408 55.592 63.088 55.104 63.632 54.496ZM73.5781 54.304C73.4981 54.352 73.3461 54.432 73.1221 54.544C72.9141 54.656 72.6821 54.768 72.4261 54.88C72.1861 54.976 71.9541 55.072 71.7301 55.168C71.5221 55.248 71.3781 55.296 71.2981 55.312C71.1541 55.344 70.9781 55.384 70.7701 55.432C70.5781 55.48 70.4261 55.512 70.3141 55.528C70.2341 55.896 70.2581 56.16 70.3861 56.32C70.5301 56.48 70.7461 56.56 71.0341 56.56C71.3381 56.56 71.6981 56.488 72.1141 56.344C72.5461 56.2 72.9861 56.024 73.4341 55.816C73.8821 55.608 74.3061 55.392 74.7061 55.168C75.1221 54.928 75.4661 54.712 75.7381 54.52C75.8661 54.44 76.0021 54.384 76.1461 54.352C76.3061 54.304 76.4661 54.304 76.6261 54.352C76.8341 54.448 76.9461 54.592 76.9621 54.784C76.9941 54.976 76.9621 55.176 76.8661 55.384C76.7861 55.592 76.6741 55.792 76.5301 55.984C76.3861 56.16 76.2661 56.296 76.1701 56.392C75.7541 56.76 75.3461 57.088 74.9461 57.376C74.5461 57.648 74.1301 57.88 73.6981 58.072C73.2821 58.264 72.8341 58.416 72.3541 58.528C71.8741 58.656 71.3461 58.752 70.7701 58.816C70.2261 58.864 69.7141 58.776 69.2341 58.552C68.7541 58.344 68.3861 58.016 68.1301 57.568C67.8741 57.12 67.7461 56.616 67.7461 56.056C67.7461 55.496 67.8501 54.912 68.0581 54.304C68.2821 53.696 68.5461 53.112 68.8501 52.552C69.1701 51.992 69.5141 51.488 69.8821 51.04C70.2501 50.576 70.5941 50.216 70.9141 49.96C71.2661 49.672 71.6821 49.448 72.1621 49.288C72.6421 49.112 73.1141 49.024 73.5781 49.024C74.2021 49.024 74.7541 49.216 75.2341 49.6C75.7141 49.968 75.9541 50.576 75.9541 51.424C75.9381 51.76 75.8421 52.08 75.6661 52.384C75.5061 52.672 75.3061 52.936 75.0661 53.176C74.8421 53.416 74.5941 53.632 74.3221 53.824C74.0501 54.016 73.8021 54.176 73.5781 54.304ZM73.4581 51.976C73.5221 51.864 73.5781 51.704 73.6261 51.496C73.6901 51.272 73.6421 51.136 73.4821 51.088H73.5061C73.2821 51.04 73.0661 51.048 72.8581 51.112C72.6661 51.176 72.4661 51.272 72.2581 51.4C72.1621 51.48 72.0261 51.616 71.8501 51.808C71.6741 51.984 71.5061 52.176 71.3461 52.384C71.1861 52.592 71.0501 52.8 70.9381 53.008C70.8261 53.216 70.7861 53.392 70.8181 53.536C71.2981 53.472 71.7941 53.304 72.3061 53.032C72.8181 52.76 73.2021 52.408 73.4581 51.976ZM85.6269 52.744C86.3469 51.256 87.0189 49.72 87.6429 48.136C88.2669 46.552 88.9229 45.024 89.6109 43.552C89.7709 43.184 90.0749 42.832 90.5229 42.496C90.9869 42.144 91.4829 41.888 92.0109 41.728C92.5389 41.552 93.0349 41.512 93.4989 41.608C93.9789 41.704 94.3149 42.008 94.5069 42.52C94.7309 43.768 94.9629 45 95.2029 46.216C95.4429 47.416 95.7069 48.656 95.9949 49.936C96.2989 49.84 96.5549 49.76 96.7629 49.696C96.9869 49.632 97.1949 49.576 97.3869 49.528C97.5789 49.48 97.7869 49.432 98.0109 49.384C98.2349 49.336 98.5229 49.288 98.8749 49.24C99.0669 49.192 99.2509 49.216 99.4269 49.312C99.6029 49.408 99.7469 49.544 99.8589 49.72C99.9709 49.88 100.027 50.064 100.027 50.272C100.043 50.48 99.9789 50.664 99.8349 50.824C99.5469 51.048 99.2829 51.224 99.0429 51.352C98.8029 51.464 98.5549 51.568 98.2989 51.664C98.0589 51.744 97.7869 51.824 97.4829 51.904C97.1949 51.968 96.8589 52.048 96.4749 52.144C96.6669 52.896 96.8269 53.672 96.9549 54.472C97.0829 55.256 97.2509 56.016 97.4589 56.752C97.4589 56.784 97.4829 56.928 97.5309 57.184C97.5949 57.44 97.6669 57.72 97.7469 58.024C97.8269 58.344 97.8989 58.64 97.9629 58.912C98.0269 59.2 98.0669 59.384 98.0829 59.464C98.1309 59.752 98.1549 60.064 98.1549 60.4C98.1709 60.752 98.1389 61.088 98.0589 61.408C97.8189 61.776 97.5229 61.944 97.1709 61.912C96.8189 61.896 96.4829 61.752 96.1629 61.48C95.8749 60.664 95.6509 59.888 95.4909 59.152C95.3309 58.416 95.1629 57.592 94.9869 56.68C94.7789 55.992 94.6189 55.32 94.5069 54.664C94.4109 53.992 94.2909 53.368 94.1469 52.792C93.2509 53.016 92.3789 53.256 91.5309 53.512C90.6989 53.768 89.8669 54.024 89.0349 54.28C88.7629 54.376 88.4829 54.472 88.1949 54.568C87.9229 54.648 87.6269 54.728 87.3069 54.808C87.1629 55.048 86.9789 55.416 86.7549 55.912C86.5309 56.392 86.2989 56.912 86.0589 57.472C85.8189 58.032 85.5789 58.584 85.3389 59.128C85.0989 59.672 84.8829 60.112 84.6909 60.448C84.5149 60.768 84.3549 61.048 84.2109 61.288C84.0669 61.528 83.9149 61.704 83.7549 61.816C83.6109 61.944 83.4349 62 83.2269 61.984C83.0189 61.984 82.7549 61.904 82.4349 61.744C82.4349 61.728 82.4269 61.704 82.4109 61.672C82.3949 61.64 82.3869 61.648 82.3869 61.696C82.1629 61.52 82.0509 61.288 82.0509 61C82.0509 60.712 82.1309 60.456 82.2909 60.232C82.6269 59.448 82.9629 58.648 83.2989 57.832C83.6349 57.016 83.9869 56.264 84.3549 55.576C83.9869 55.672 83.6109 55.776 83.2269 55.888C82.8589 55.984 82.5069 56.064 82.1709 56.128C81.8509 56.192 81.5789 56.224 81.3549 56.224C81.1309 56.208 80.9949 56.128 80.9469 55.984C80.8189 55.824 80.7229 55.648 80.6589 55.456C80.5789 55.264 80.5549 55.08 80.5869 54.904C80.6029 54.712 80.6829 54.536 80.8269 54.376C80.9549 54.216 81.1789 54.088 81.4989 53.992C81.5629 53.944 81.6909 53.888 81.8829 53.824C82.0909 53.76 82.3069 53.696 82.5309 53.632C82.7549 53.568 82.9629 53.512 83.1549 53.464C83.3469 53.4 83.4669 53.36 83.5149 53.344L85.6269 52.744ZM92.1069 44.032C91.7549 44.832 91.4269 45.592 91.1229 46.312C90.8189 47.016 90.5229 47.696 90.2349 48.352C89.9629 49.008 89.6909 49.64 89.4189 50.248C89.1469 50.856 88.8669 51.456 88.5789 52.048C89.3469 51.872 90.0909 51.688 90.8109 51.496C91.5469 51.288 92.2749 51.072 92.9949 50.848C93.1549 50.816 93.2829 50.792 93.3789 50.776C93.4749 50.744 93.5789 50.68 93.6909 50.584C93.3389 49.48 93.0669 48.376 92.8749 47.272C92.6829 46.152 92.4269 45.072 92.1069 44.032ZM103.081 49.432C103.129 49.832 103.089 50.296 102.961 50.824C102.849 51.336 102.753 51.848 102.673 52.36C102.881 52.2 103.033 52.072 103.129 51.976C103.241 51.88 103.353 51.768 103.465 51.64C103.593 51.512 103.761 51.344 103.969 51.136C104.177 50.928 104.497 50.632 104.929 50.248C105.041 50.152 105.169 50.024 105.313 49.864C105.473 49.704 105.649 49.544 105.841 49.384C106.033 49.224 106.241 49.088 106.465 48.976C106.705 48.848 106.945 48.768 107.185 48.736C107.393 48.704 107.601 48.712 107.809 48.76C108.033 48.792 108.209 48.872 108.337 49C108.401 49.064 108.449 49.168 108.481 49.312C108.497 49.6 108.473 49.888 108.409 50.176C108.361 50.464 108.273 50.776 108.145 51.112C107.921 51.64 107.721 52.152 107.545 52.648C107.369 53.144 107.193 53.672 107.017 54.232C107.337 53.896 107.665 53.528 108.001 53.128C108.353 52.712 108.713 52.296 109.081 51.88C109.449 51.448 109.817 51.032 110.185 50.632C110.569 50.216 110.961 49.832 111.361 49.48C111.585 49.304 111.801 49.136 112.009 48.976C112.217 48.816 112.489 48.728 112.825 48.712C113.097 48.68 113.337 48.688 113.545 48.736C113.769 48.784 113.945 48.912 114.073 49.12C114.169 49.248 114.193 49.44 114.145 49.696C114.097 49.936 114.057 50.128 114.025 50.272C113.945 50.672 113.833 51.128 113.689 51.64C113.545 52.136 113.393 52.648 113.233 53.176C113.089 53.704 112.945 54.216 112.801 54.712C112.673 55.208 112.569 55.648 112.489 56.032C112.633 56.032 112.785 56.008 112.945 55.96C113.105 55.912 113.257 55.864 113.401 55.816C113.561 55.768 113.721 55.736 113.881 55.72C114.041 55.688 114.209 55.696 114.385 55.744C114.513 55.856 114.593 56.016 114.625 56.224C114.673 56.416 114.657 56.576 114.577 56.704C114.497 56.88 114.345 57.048 114.121 57.208C113.897 57.352 113.649 57.488 113.377 57.616C113.105 57.728 112.833 57.832 112.561 57.928C112.305 58.008 112.097 58.072 111.937 58.12C111.777 58.152 111.537 58.192 111.217 58.24C110.913 58.304 110.689 58.312 110.545 58.264C110.417 58.232 110.305 58.144 110.209 58C110.129 57.872 110.097 57.728 110.113 57.568C110.113 57.44 110.121 57.32 110.137 57.208C110.169 57.08 110.201 56.944 110.233 56.8C110.233 56.784 110.273 56.616 110.353 56.296C110.449 55.96 110.553 55.584 110.665 55.168C110.793 54.752 110.905 54.36 111.001 53.992C111.097 53.608 111.161 53.36 111.193 53.248C111.225 53.088 111.249 52.968 111.265 52.888C111.297 52.792 111.313 52.688 111.313 52.576C111.201 52.576 111.105 52.616 111.025 52.696C110.961 52.776 110.881 52.872 110.785 52.984C110.561 53.272 110.345 53.544 110.137 53.8C109.929 54.04 109.705 54.304 109.465 54.592C109.225 54.864 109.009 55.128 108.817 55.384C108.625 55.64 108.401 55.896 108.145 56.152C107.825 56.472 107.505 56.8 107.185 57.136C106.865 57.456 106.513 57.728 106.129 57.952C106.001 57.984 105.825 58.008 105.601 58.024C105.393 58.04 105.217 58.032 105.073 58C104.945 57.968 104.833 57.904 104.737 57.808C104.657 57.712 104.577 57.6 104.497 57.472C104.401 56.912 104.417 56.392 104.545 55.912C104.673 55.432 104.785 54.952 104.881 54.472C104.961 54.12 105.033 53.776 105.097 53.44C105.177 53.104 105.257 52.76 105.337 52.408C105.161 52.52 104.993 52.656 104.833 52.816C104.689 52.96 104.545 53.112 104.401 53.272C103.745 54.072 103.105 54.888 102.481 55.72C101.857 56.536 101.185 57.328 100.465 58.096C100.369 58.208 100.257 58.28 100.129 58.312C100.001 58.344 99.8733 58.336 99.7453 58.288C99.6173 58.256 99.5053 58.184 99.4093 58.072C99.3133 57.976 99.2493 57.84 99.2173 57.664C99.1853 57.536 99.1853 57.4 99.2173 57.256C99.2493 57.096 99.2813 56.936 99.3133 56.776C99.3613 56.456 99.4333 56.136 99.5293 55.816C99.6253 55.48 99.7133 55.168 99.7933 54.88C99.8413 54.736 99.8813 54.6 99.9133 54.472C99.9453 54.328 99.9773 54.184 100.009 54.04C100.057 53.912 100.105 53.744 100.153 53.536C100.217 53.328 100.281 53.112 100.345 52.888C100.409 52.664 100.473 52.448 100.537 52.24C100.601 52.016 100.649 51.832 100.681 51.688C100.329 52.024 99.9853 52.208 99.6493 52.24C99.3293 52.272 99.0173 52.072 98.7133 51.64C98.5853 51.272 98.5933 50.952 98.7373 50.68C98.8973 50.392 99.1293 50.136 99.4333 49.912C99.7533 49.688 100.121 49.488 100.537 49.312C100.969 49.12 101.401 48.928 101.833 48.736C101.897 48.72 101.993 48.72 102.121 48.736C102.265 48.752 102.409 48.792 102.553 48.856C102.697 48.92 102.817 49 102.913 49.096C103.025 49.192 103.081 49.304 103.081 49.432ZM115.987 58.528C115.715 58.448 115.443 58.296 115.171 58.072C114.915 57.848 114.747 57.6 114.667 57.328C114.507 56.832 114.427 56.272 114.427 55.648C114.427 55.216 114.467 54.8 114.547 54.4C114.627 54 114.779 53.528 115.003 52.984C115.259 52.44 115.555 51.928 115.891 51.448C116.243 50.952 116.635 50.528 117.067 50.176C117.515 49.808 117.995 49.52 118.507 49.312C119.035 49.088 119.611 48.984 120.235 49C120.491 49.016 120.755 49.08 121.027 49.192C121.299 49.304 121.547 49.456 121.771 49.648C121.995 49.84 122.187 50.056 122.347 50.296C122.523 50.52 122.627 50.76 122.659 51.016C122.675 51.16 122.683 51.304 122.683 51.448C122.699 51.576 122.707 51.712 122.707 51.856C122.707 52.752 122.547 53.608 122.227 54.424C121.923 55.24 121.507 55.968 120.979 56.608C120.451 57.232 119.843 57.728 119.155 58.096C118.483 58.48 117.779 58.672 117.043 58.672C116.691 58.672 116.339 58.624 115.987 58.528ZM118.027 52.192C117.835 52.512 117.667 52.776 117.523 52.984C117.395 53.192 117.283 53.392 117.187 53.584C117.091 53.76 117.011 53.952 116.947 54.16C116.899 54.368 116.859 54.616 116.827 54.904C116.779 55.384 116.811 55.744 116.923 55.984C117.051 56.208 117.227 56.32 117.451 56.32C117.723 56.32 118.027 56.2 118.363 55.96C118.699 55.72 118.971 55.456 119.179 55.168L119.203 55.144C119.219 55.128 119.243 55.088 119.275 55.024C119.323 54.928 119.411 54.776 119.539 54.568C119.683 54.36 119.819 54.12 119.947 53.848C120.091 53.56 120.211 53.264 120.307 52.96C120.419 52.656 120.475 52.368 120.475 52.096C120.475 51.856 120.411 51.648 120.283 51.472C120.171 51.28 119.971 51.16 119.683 51.112C119.555 51.08 119.403 51.104 119.227 51.184C119.067 51.264 118.907 51.368 118.747 51.496C118.587 51.608 118.443 51.728 118.315 51.856C118.187 51.984 118.091 52.08 118.027 52.144V52.192ZM127.585 49.888C127.873 49.696 128.209 49.544 128.593 49.432C128.977 49.304 129.329 49.264 129.649 49.312C129.985 49.36 130.257 49.504 130.465 49.744C130.673 49.984 130.753 50.368 130.705 50.896C130.705 51.104 130.665 51.36 130.585 51.664C130.521 51.952 130.433 52.248 130.321 52.552C130.209 52.856 130.081 53.144 129.937 53.416C129.809 53.688 129.681 53.904 129.553 54.064C129.377 54.288 129.129 54.424 128.809 54.472C128.489 54.504 128.209 54.384 127.969 54.112C127.857 53.968 127.801 53.816 127.801 53.656C127.817 53.496 127.857 53.328 127.921 53.152C127.985 52.976 128.041 52.8 128.089 52.624C128.153 52.432 128.177 52.248 128.161 52.072C127.665 52.168 127.233 52.4 126.865 52.768C126.497 53.136 126.169 53.56 125.881 54.04C125.593 54.52 125.337 55.016 125.113 55.528C124.889 56.024 124.681 56.456 124.489 56.824C124.409 56.968 124.345 57.128 124.297 57.304C124.249 57.48 124.193 57.648 124.129 57.808C124.065 57.968 123.993 58.112 123.913 58.24C123.833 58.384 123.729 58.48 123.601 58.528C123.329 58.672 123.033 58.704 122.713 58.624C122.409 58.56 122.193 58.4 122.065 58.144C122.017 58 122.017 57.816 122.065 57.592C122.097 57.352 122.153 57.104 122.233 56.848C122.313 56.592 122.401 56.336 122.497 56.08C122.593 55.808 122.673 55.568 122.737 55.36C122.929 54.72 123.169 54.056 123.457 53.368C123.761 52.664 124.009 51.992 124.201 51.352C123.961 51.448 123.737 51.512 123.529 51.544C123.321 51.576 123.145 51.56 123.001 51.496C122.857 51.432 122.753 51.312 122.689 51.136C122.641 50.944 122.657 50.68 122.737 50.344C122.833 50.2 122.921 50.072 123.001 49.96C123.081 49.832 123.201 49.704 123.361 49.576C123.521 49.448 123.737 49.328 124.009 49.216C124.297 49.088 124.673 48.952 125.137 48.808C125.441 48.712 125.673 48.704 125.833 48.784C126.009 48.848 126.137 48.968 126.217 49.144C126.297 49.304 126.329 49.512 126.313 49.768C126.313 50.008 126.281 50.248 126.217 50.488C126.201 50.504 126.185 50.544 126.169 50.608C126.153 50.656 126.137 50.712 126.121 50.776C126.105 50.84 126.089 50.896 126.073 50.944C126.073 50.992 126.073 51.016 126.073 51.016C126.313 50.76 126.545 50.56 126.769 50.416C126.993 50.272 127.265 50.096 127.585 49.888Z" fill="#1E1E1E"/>
<path d="M172.476 69.193C172.372 67.2315 171.247 65.9503 170.161 64.7119C169.216 63.6338 168.324 62.6152 167.964 61.1189C166.974 56.9768 166.482 54.5058 163.273 53.6458C160.063 52.7858 158.399 54.6799 155.466 57.7695C154.404 58.8876 153.117 59.3238 151.758 59.7862C150.198 60.3165 148.587 60.8622 147.514 62.5045C147.111 63.0921 146.811 63.7506 146.629 64.4464C145.844 67.3743 147.374 70.3376 149.775 70.981C152.176 71.6245 155.689 71.1691 158.391 71.8931C161.093 72.6171 163.863 74.7559 166.294 75.4074C168.726 76.0589 171.494 74.2472 172.279 71.3192C172.467 70.6247 172.534 69.9038 172.476 69.193Z" fill="#1E1E1E"/>
<path d="M149.129 57.2509C151.195 57.8045 153.491 55.9365 154.256 53.0786C155.022 50.2207 153.968 47.4553 151.902 46.9017C149.836 46.3482 147.541 48.2162 146.775 51.074C146.009 53.9319 147.063 56.6974 149.129 57.2509Z" fill="#1E1E1E"/>
<path d="M158.459 52.3561C160.525 52.9097 162.821 51.0417 163.586 48.1838C164.352 45.326 163.298 42.5605 161.232 42.0069C159.166 41.4534 156.871 43.3214 156.105 46.1792C155.339 49.0371 156.393 51.8026 158.459 52.3561Z" fill="#1E1E1E"/>
<path d="M168.078 54.9333C170.144 55.4868 172.439 53.6188 173.205 50.761C173.971 47.9031 172.917 45.1376 170.851 44.5841C168.785 44.0305 166.49 45.8985 165.724 48.7564C164.958 51.6143 166.012 54.3797 168.078 54.9333Z" fill="#1E1E1E"/>
<path d="M173.711 63.8376C175.777 64.3911 178.072 62.5231 178.838 59.6653C179.604 56.8074 178.55 54.0419 176.484 53.4884C174.418 52.9348 172.122 54.8028 171.357 57.6607C170.591 60.5185 171.645 63.284 173.711 63.8376Z" fill="#1E1E1E"/>
</svg>
